<?xml version="1.0" encoding="utf-8"?>
<svg fill-rule="evenodd" viewBox="0 0 180 72" xmlns="http://www.w3.org/2000/svg">
  <rect style="fill: rgb(27, 31, 35);" width="180" height="72" rx="8" ry="8"/>
  <g transform="matrix(1, 0, 0, 1, 12.101997, -0.000486)">
    <path fill-rule="evenodd" clip-rule="evenodd" d="M 35.977 17.018 C 25.225 17.018 16.515 25.727 16.515 36.48 C 16.515 45.093 22.086 52.367 29.822 54.946 C 30.796 55.116 31.161 54.532 31.161 54.021 C 31.161 53.559 31.136 52.026 31.136 50.396 C 26.247 51.296 24.981 49.204 24.592 48.109 C 24.373 47.55 23.424 45.822 22.597 45.36 C 21.916 44.995 20.943 44.096 22.573 44.071 C 24.105 44.047 25.2 45.482 25.565 46.066 C 27.317 49.009 30.115 48.182 31.233 47.672 C 31.404 46.406 31.915 45.555 32.474 45.068 C 28.144 44.582 23.619 42.903 23.619 35.458 C 23.619 33.342 24.373 31.59 25.614 30.228 C 25.419 29.742 24.738 27.747 25.808 25.07 C 25.808 25.07 27.438 24.559 31.161 27.065 C 32.718 26.627 34.372 26.409 36.026 26.409 C 37.681 26.409 39.335 26.627 40.892 27.065 C 44.615 24.535 46.244 25.07 46.244 25.07 C 47.315 27.747 46.633 29.742 46.439 30.228 C 47.68 31.59 48.434 33.318 48.434 35.458 C 48.434 42.928 43.884 44.582 39.554 45.068 C 40.259 45.677 40.868 46.844 40.868 48.669 C 40.868 51.272 40.843 53.364 40.843 54.021 C 40.843 54.532 41.208 55.14 42.182 54.946 C 49.869 52.367 55.44 45.068 55.44 36.48 C 55.44 25.727 46.731 17.018 35.977 17.018 Z" style="fill: rgb(255, 255, 255);"/>
    <path d="M 77.675 34.247 C 77.409 33.757 77.027 33.382 76.53 33.123 C 76.033 32.864 75.449 32.735 74.777 32.735 C 73.615 32.735 72.684 33.116 71.984 33.879 C 71.284 34.642 70.934 35.661 70.934 36.935 C 70.934 38.293 71.301 39.353 72.036 40.116 C 72.771 40.879 73.783 41.261 75.071 41.261 C 75.953 41.261 76.698 41.037 77.307 40.589 C 77.916 40.141 78.361 39.497 78.641 38.657 L 74.084 38.657 L 74.084 36.011 L 81.896 36.011 L 81.896 39.35 C 81.63 40.246 81.178 41.079 80.541 41.849 C 79.904 42.619 79.096 43.242 78.116 43.718 C 77.136 44.194 76.03 44.432 74.798 44.432 C 73.342 44.432 72.043 44.113 70.902 43.476 C 69.761 42.839 68.872 41.954 68.235 40.82 C 67.598 39.686 67.28 38.391 67.28 36.935 C 67.28 35.479 67.598 34.18 68.235 33.039 C 68.872 31.898 69.758 31.009 70.892 30.372 C 72.026 29.735 73.321 29.417 74.777 29.417 C 76.541 29.417 78.028 29.844 79.239 30.698 C 80.45 31.552 81.252 32.735 81.644 34.247 L 77.675 34.247 Z M 85.693 31.391 C 85.063 31.391 84.548 31.205 84.149 30.834 C 83.75 30.463 83.551 30.005 83.551 29.459 C 83.551 28.899 83.75 28.433 84.149 28.062 C 84.548 27.691 85.063 27.506 85.693 27.506 C 86.309 27.506 86.816 27.691 87.215 28.062 C 87.614 28.433 87.814 28.899 87.814 29.459 C 87.814 30.005 87.614 30.463 87.215 30.834 C 86.816 31.205 86.309 31.391 85.693 31.391 Z M 87.478 32.609 L 87.478 44.327 L 83.887 44.327 L 83.887 32.609 L 87.478 32.609 Z M 96.61 41.282 L 96.61 44.327 L 94.783 44.327 C 93.481 44.327 92.466 44.008 91.738 43.371 C 91.01 42.734 90.646 41.695 90.646 40.253 L 90.646 35.591 L 89.218 35.591 L 89.218 32.609 L 90.646 32.609 L 90.646 29.753 L 94.237 29.753 L 94.237 32.609 L 96.589 32.609 L 96.589 35.591 L 94.237 35.591 L 94.237 40.295 C 94.237 40.645 94.321 40.897 94.489 41.051 C 94.657 41.205 94.937 41.282 95.329 41.282 L 96.61 41.282 Z M 105.807 32.483 C 107.151 32.483 108.229 32.927 109.041 33.816 C 109.853 34.705 110.259 35.927 110.259 37.481 L 110.259 44.327 L 106.689 44.327 L 106.689 37.964 C 106.689 37.18 106.486 36.571 106.08 36.137 C 105.674 35.703 105.128 35.486 104.442 35.486 C 103.756 35.486 103.21 35.703 102.804 36.137 C 102.398 36.571 102.195 37.18 102.195 37.964 L 102.195 44.327 L 98.604 44.327 L 98.604 28.787 L 102.195 28.787 L 102.195 34.184 C 102.559 33.666 103.056 33.253 103.686 32.945 C 104.316 32.637 105.023 32.483 105.807 32.483 Z M 124.327 32.609 L 124.327 44.327 L 120.736 44.327 L 120.736 42.731 C 120.372 43.249 119.878 43.665 119.255 43.98 C 118.632 44.295 117.943 44.453 117.187 44.453 C 116.291 44.453 115.5 44.253 114.814 43.854 C 114.128 43.455 113.596 42.878 113.218 42.122 C 112.84 41.366 112.651 40.477 112.651 39.455 L 112.651 32.609 L 116.221 32.609 L 116.221 38.972 C 116.221 39.756 116.424 40.365 116.83 40.799 C 117.236 41.233 117.782 41.45 118.468 41.45 C 119.168 41.45 119.721 41.233 120.127 40.799 C 120.533 40.365 120.736 39.756 120.736 38.972 L 120.736 32.609 L 124.327 32.609 Z M 130.503 34.268 C 130.839 33.722 131.322 33.281 131.952 32.945 C 132.582 32.609 133.303 32.441 134.115 32.441 C 135.081 32.441 135.956 32.686 136.74 33.176 C 137.524 33.666 138.143 34.366 138.598 35.276 C 139.053 36.186 139.281 37.243 139.281 38.447 C 139.281 39.651 139.053 40.711 138.598 41.628 C 138.143 42.545 137.524 43.252 136.74 43.749 C 135.956 44.246 135.081 44.495 134.115 44.495 C 133.289 44.495 132.568 44.33 131.952 44.001 C 131.336 43.672 130.853 43.235 130.503 42.689 L 130.503 44.327 L 126.912 44.327 L 126.912 28.787 L 130.503 28.787 L 130.503 34.268 Z M 135.627 38.447 C 135.627 37.551 135.378 36.847 134.881 36.336 C 134.384 35.825 133.772 35.57 133.044 35.57 C 132.33 35.57 131.724 35.829 131.227 36.347 C 130.73 36.865 130.482 37.572 130.482 38.468 C 130.482 39.364 130.73 40.071 131.227 40.589 C 131.724 41.107 132.33 41.366 133.044 41.366 C 133.758 41.366 134.367 41.103 134.871 40.578 C 135.375 40.053 135.627 39.343 135.627 38.447 Z" style="fill: rgb(255, 255, 255); white-space: pre;"/>
  </g>
</svg>