<?xml version="1.0" encoding="utf-8"?>
<svg fill-rule="evenodd" viewBox="0 0 180 72" xmlns="http://www.w3.org/2000/svg">
  <rect style="fill: rgb(246, 248, 252);" width="180" height="72" rx="8" ry="8"/>
  <g transform="matrix(1, 0, 0, 1, 11.321142, 0)">
    <g transform="matrix(0.449187, 0, 0, 0.449187, 4.033336, 54.811729)" style="">
      <path fill="#4285f4" d="M 35.365 -8.871 L 49.365 -8.871 L 49.365 -42.871 L 29.365 -57.871 L 29.365 -14.871 C 29.365 -11.551 32.055 -8.871 35.365 -8.871"/>
      <path fill="#34a853" d="M 97.365 -8.871 L 111.365 -8.871 C 114.685 -8.871 117.365 -11.561 117.365 -14.871 L 117.365 -57.871 L 97.365 -42.871"/>
      <path fill="#fbbc04" d="M 97.365 -68.871 L 97.365 -42.871 L 117.365 -57.871 L 117.365 -65.871 C 117.365 -73.291 108.895 -77.521 102.965 -73.071"/>
      <path fill="#ea4335" d="M 49.365 -42.871 L 49.365 -68.871 L 73.365 -50.871 L 97.365 -68.871 L 97.365 -42.871 L 73.365 -24.871"/>
      <path fill="#c5221f" d="M 29.365 -65.871 L 29.365 -57.871 L 49.365 -42.871 L 49.365 -68.871 L 43.765 -73.071 C 37.825 -77.521 29.365 -73.291 29.365 -65.871"/>
    </g>
    <path d="M 81.921 33.588 C 81.537 32.884 81.009 32.348 80.337 31.98 C 79.665 31.612 78.881 31.428 77.985 31.428 C 76.993 31.428 76.113 31.652 75.345 32.1 C 74.577 32.548 73.977 33.188 73.545 34.02 C 73.113 34.852 72.897 35.812 72.897 36.9 C 72.897 38.02 73.117 38.996 73.557 39.828 C 73.997 40.66 74.609 41.3 75.393 41.748 C 76.177 42.196 77.089 42.42 78.129 42.42 C 79.409 42.42 80.457 42.08 81.273 41.4 C 82.089 40.72 82.625 39.772 82.881 38.556 L 77.121 38.556 L 77.121 35.988 L 86.193 35.988 L 86.193 38.916 C 85.969 40.084 85.489 41.164 84.753 42.156 C 84.017 43.148 83.069 43.944 81.909 44.544 C 80.749 45.144 79.449 45.444 78.009 45.444 C 76.393 45.444 74.933 45.08 73.629 44.352 C 72.325 43.624 71.301 42.612 70.557 41.316 C 69.813 40.02 69.441 38.548 69.441 36.9 C 69.441 35.252 69.813 33.776 70.557 32.472 C 71.301 31.168 72.325 30.152 73.629 29.424 C 74.933 28.696 76.385 28.332 77.985 28.332 C 79.873 28.332 81.513 28.792 82.905 29.712 C 84.297 30.632 85.257 31.924 85.785 33.588 L 81.921 33.588 Z M 105.198 31.812 C 106.83 31.812 108.146 32.312 109.146 33.312 C 110.146 34.312 110.646 35.708 110.646 37.5 L 110.646 45.3 L 107.286 45.3 L 107.286 37.956 C 107.286 36.916 107.022 36.12 106.494 35.568 C 105.966 35.016 105.246 34.74 104.334 34.74 C 103.422 34.74 102.698 35.016 102.162 35.568 C 101.626 36.12 101.358 36.916 101.358 37.956 L 101.358 45.3 L 97.998 45.3 L 97.998 37.956 C 97.998 36.916 97.734 36.12 97.206 35.568 C 96.678 35.016 95.958 34.74 95.046 34.74 C 94.118 34.74 93.386 35.016 92.85 35.568 C 92.314 36.12 92.046 36.916 92.046 37.956 L 92.046 45.3 L 88.686 45.3 L 88.686 32.004 L 92.046 32.004 L 92.046 33.612 C 92.478 33.052 93.034 32.612 93.714 32.292 C 94.394 31.972 95.142 31.812 95.958 31.812 C 96.998 31.812 97.926 32.032 98.742 32.472 C 99.558 32.912 100.19 33.54 100.638 34.356 C 101.07 33.588 101.698 32.972 102.522 32.508 C 103.346 32.044 104.238 31.812 105.198 31.812 Z M 112.971 38.604 C 112.971 37.26 113.239 36.068 113.775 35.028 C 114.311 33.988 115.039 33.188 115.959 32.628 C 116.879 32.068 117.907 31.788 119.043 31.788 C 120.035 31.788 120.903 31.988 121.647 32.388 C 122.391 32.788 122.987 33.292 123.435 33.9 L 123.435 32.004 L 126.819 32.004 L 126.819 45.3 L 123.435 45.3 L 123.435 43.356 C 123.003 43.98 122.407 44.496 121.647 44.904 C 120.887 45.312 120.011 45.516 119.019 45.516 C 117.899 45.516 116.879 45.228 115.959 44.652 C 115.039 44.076 114.311 43.264 113.775 42.216 C 113.239 41.168 112.971 39.964 112.971 38.604 Z M 123.435 38.652 C 123.435 37.836 123.275 37.136 122.955 36.552 C 122.635 35.968 122.203 35.52 121.659 35.208 C 121.115 34.896 120.531 34.74 119.907 34.74 C 119.283 34.74 118.707 34.892 118.179 35.196 C 117.651 35.5 117.223 35.944 116.895 36.528 C 116.567 37.112 116.403 37.804 116.403 38.604 C 116.403 39.404 116.567 40.104 116.895 40.704 C 117.223 41.304 117.655 41.764 118.191 42.084 C 118.727 42.404 119.299 42.564 119.907 42.564 C 120.531 42.564 121.115 42.408 121.659 42.096 C 122.203 41.784 122.635 41.336 122.955 40.752 C 123.275 40.168 123.435 39.468 123.435 38.652 Z M 131.809 30.42 C 131.217 30.42 130.725 30.232 130.333 29.856 C 129.941 29.48 129.745 29.012 129.745 28.452 C 129.745 27.892 129.941 27.424 130.333 27.048 C 130.725 26.672 131.217 26.484 131.809 26.484 C 132.401 26.484 132.893 26.672 133.285 27.048 C 133.677 27.424 133.873 27.892 133.873 28.452 C 133.873 29.012 133.677 29.48 133.285 29.856 C 132.893 30.232 132.401 30.42 131.809 30.42 Z M 133.465 32.004 L 133.465 45.3 L 130.105 45.3 L 130.105 32.004 L 133.465 32.004 Z M 140.134 27.54 L 140.134 45.3 L 136.774 45.3 L 136.774 27.54 L 140.134 27.54 Z" style="fill: rgb(51, 51, 51); white-space: pre;"/>
  </g>
</svg>