<?xml version="1.0" encoding="utf-8"?>
<svg fill-rule="evenodd" viewBox="0 0 180 72" xmlns="http://www.w3.org/2000/svg">
  <rect style="fill: rgb(0, 126, 187);" width="180" height="72" rx="8" ry="8"/>
  <g transform="matrix(1, 0, 0, 1, -1.937506, 0)">
    <path d="M 22.757 54.172 L 51.025 54.172 C 53.255 54.172 55.063 52.364 55.063 50.134 L 55.063 21.866 C 55.063 19.636 53.255 17.828 51.025 17.828 L 22.757 17.828 C 20.527 17.828 18.719 19.636 18.719 21.866 L 18.719 50.134 C 18.719 52.364 20.527 54.172 22.757 54.172 Z" style="fill: rgb(255, 255, 255);" fill="none" fill-rule="evenodd"/>
    <path d="M 50.015 49.124 L 44.622 49.124 L 44.622 39.938 C 44.622 37.42 43.665 36.012 41.671 36.012 C 39.503 36.012 38.37 37.477 38.37 39.938 L 38.37 49.124 L 33.172 49.124 L 33.172 31.625 L 38.37 31.625 L 38.37 33.982 C 38.37 33.982 39.933 31.091 43.646 31.091 C 47.358 31.091 50.015 33.357 50.015 38.045 L 50.015 49.124 Z M 26.972 29.334 C 25.201 29.334 23.766 27.888 23.766 26.105 C 23.766 24.322 25.201 22.876 26.972 22.876 C 28.742 22.876 30.176 24.322 30.176 26.105 C 30.176 27.888 28.742 29.334 26.972 29.334 Z M 24.288 49.124 L 29.707 49.124 L 29.707 31.625 L 24.288 31.625 L 24.288 49.124 Z" style="fill: rgb(0, 126, 187);" fill="none" fill-rule="evenodd"/>
    <path d="M 68.263 42.348 L 73.639 42.348 L 73.639 45.516 L 64.159 45.516 L 64.159 28.668 L 68.263 28.668 L 68.263 42.348 Z M 77.664 30.732 C 76.944 30.732 76.356 30.52 75.9 30.096 C 75.444 29.672 75.216 29.148 75.216 28.524 C 75.216 27.884 75.444 27.352 75.9 26.928 C 76.356 26.504 76.944 26.292 77.664 26.292 C 78.368 26.292 78.948 26.504 79.404 26.928 C 79.86 27.352 80.088 27.884 80.088 28.524 C 80.088 29.148 79.86 29.672 79.404 30.096 C 78.948 30.52 78.368 30.732 77.664 30.732 Z M 79.704 32.124 L 79.704 45.516 L 75.6 45.516 L 75.6 32.124 L 79.704 32.124 Z M 90.841 31.98 C 92.409 31.98 93.661 32.488 94.597 33.504 C 95.533 34.52 96.001 35.916 96.001 37.692 L 96.001 45.516 L 91.921 45.516 L 91.921 38.244 C 91.921 37.348 91.689 36.652 91.225 36.156 C 90.761 35.66 90.137 35.412 89.353 35.412 C 88.569 35.412 87.945 35.66 87.481 36.156 C 87.017 36.652 86.785 37.348 86.785 38.244 L 86.785 45.516 L 82.681 45.516 L 82.681 32.124 L 86.785 32.124 L 86.785 33.9 C 87.201 33.308 87.761 32.84 88.465 32.496 C 89.169 32.152 89.961 31.98 90.841 31.98 Z M 107.04 45.516 L 102.96 39.9 L 102.96 45.516 L 98.856 45.516 L 98.856 27.756 L 102.96 27.756 L 102.96 37.572 L 107.016 32.124 L 112.08 32.124 L 106.512 38.844 L 112.128 45.516 L 107.04 45.516 Z M 126.309 38.604 C 126.309 38.988 126.285 39.388 126.237 39.804 L 116.949 39.804 C 117.013 40.636 117.281 41.272 117.753 41.712 C 118.225 42.152 118.805 42.372 119.493 42.372 C 120.517 42.372 121.229 41.94 121.629 41.076 L 125.997 41.076 C 125.773 41.956 125.369 42.748 124.785 43.452 C 124.201 44.156 123.469 44.708 122.589 45.108 C 121.709 45.508 120.725 45.708 119.637 45.708 C 118.325 45.708 117.157 45.428 116.133 44.868 C 115.109 44.308 114.309 43.508 113.733 42.468 C 113.157 41.428 112.869 40.212 112.869 38.82 C 112.869 37.428 113.153 36.212 113.721 35.172 C 114.289 34.132 115.085 33.332 116.109 32.772 C 117.133 32.212 118.309 31.932 119.637 31.932 C 120.933 31.932 122.085 32.204 123.093 32.748 C 124.101 33.292 124.889 34.068 125.457 35.076 C 126.025 36.084 126.309 37.26 126.309 38.604 Z M 122.109 37.524 C 122.109 36.82 121.869 36.26 121.389 35.844 C 120.909 35.428 120.309 35.22 119.589 35.22 C 118.901 35.22 118.321 35.42 117.849 35.82 C 117.377 36.22 117.085 36.788 116.973 37.524 L 122.109 37.524 Z M 127.651 38.796 C 127.651 37.42 127.911 36.212 128.431 35.172 C 128.951 34.132 129.659 33.332 130.555 32.772 C 131.451 32.212 132.451 31.932 133.555 31.932 C 134.435 31.932 135.239 32.116 135.967 32.484 C 136.695 32.852 137.267 33.348 137.683 33.972 L 137.683 27.756 L 141.787 27.756 L 141.787 45.516 L 137.683 45.516 L 137.683 43.596 C 137.299 44.236 136.751 44.748 136.039 45.132 C 135.327 45.516 134.499 45.708 133.555 45.708 C 132.451 45.708 131.451 45.424 130.555 44.856 C 129.659 44.288 128.951 43.48 128.431 42.432 C 127.911 41.384 127.651 40.172 127.651 38.796 Z M 137.683 38.82 C 137.683 37.796 137.399 36.988 136.831 36.396 C 136.263 35.804 135.571 35.508 134.755 35.508 C 133.939 35.508 133.247 35.8 132.679 36.384 C 132.111 36.968 131.827 37.772 131.827 38.796 C 131.827 39.82 132.111 40.632 132.679 41.232 C 133.247 41.832 133.939 42.132 134.755 42.132 C 135.571 42.132 136.263 41.836 136.831 41.244 C 137.399 40.652 137.683 39.844 137.683 38.82 Z M 148.865 28.668 L 148.865 45.516 L 144.761 45.516 L 144.761 28.668 L 148.865 28.668 Z M 159.996 31.98 C 161.564 31.98 162.816 32.488 163.752 33.504 C 164.688 34.52 165.156 35.916 165.156 37.692 L 165.156 45.516 L 161.076 45.516 L 161.076 38.244 C 161.076 37.348 160.844 36.652 160.38 36.156 C 159.916 35.66 159.292 35.412 158.508 35.412 C 157.724 35.412 157.1 35.66 156.636 36.156 C 156.172 36.652 155.94 37.348 155.94 38.244 L 155.94 45.516 L 151.836 45.516 L 151.836 32.124 L 155.94 32.124 L 155.94 33.9 C 156.356 33.308 156.916 32.84 157.62 32.496 C 158.324 32.152 159.116 31.98 159.996 31.98 Z" style="fill: rgb(255, 255, 255); white-space: pre;"/>
  </g>
</svg>